<svg width="38" height="37" viewBox="0 0 38 37" fill="none" xmlns="http://www.w3.org/2000/svg">
<path d="M37.9917 18.1517C37.9917 18.0394 37.9719 17.9271 37.962 17.8155C38.0009 16.5679 38.0039 15.3196 37.962 14.072C37.9475 13.6417 37.866 13.222 37.7441 12.8084C37.3342 11.4204 36.4024 10.4589 35.2237 9.68261C33.0241 8.2339 30.8344 6.77154 28.6409 5.31373C27.2511 4.39017 25.8706 3.4522 24.4679 2.54837C23.8378 2.14237 23.1658 1.79025 22.5906 1.31519C20.6889 -0.258733 18.1007 -0.445418 16.0298 0.897043C15.0904 1.50642 14.1639 2.13554 13.2306 2.75478C9.72733 5.07696 6.22867 7.40672 2.71629 9.71448C1.46371 10.5379 0.518952 11.576 0.176857 13.0634C-0.0715244 14.1448 -0.00523868 15.2498 0.0656185 16.3418C0.11819 17.1439 0.78638 17.6425 1.58867 17.6061C2.33609 17.5719 2.92581 16.9762 2.95324 16.1961C2.97381 15.6163 2.97609 15.035 2.95552 14.4552C2.922 13.5096 3.31362 12.816 4.10524 12.3015C5.64429 11.3013 7.16733 10.2761 8.69724 9.26143C11.6367 7.31111 14.5791 5.36533 17.5132 3.40818C18.5106 2.7434 19.4904 2.73278 20.4862 3.39376C24.941 6.35264 29.3967 9.31076 33.8538 12.2658C34.6675 12.8054 35.0744 13.5423 35.063 14.5235C35.05 15.6209 35.0683 16.7182 35.0729 17.8163C35.0668 17.9673 35.0546 18.1176 35.0546 18.2686C35.0546 22.7096 35.0584 27.1505 35.0546 31.5923C35.053 33.0622 34.0123 34.0958 32.5487 34.0973C30.5982 34.0996 28.647 34.0905 26.6965 34.1057C26.3849 34.108 26.2957 34.0343 26.2972 33.7148C26.311 31.0777 26.3163 28.4414 26.3033 25.8043C26.2896 22.9304 23.9468 20.5801 21.0675 20.5399C19.9658 20.5247 18.8633 20.5323 17.7616 20.5361C17.306 20.5376 16.8435 20.5088 16.3963 20.5756C13.5719 20.9975 11.7121 23.1694 11.7121 26.0183C11.7121 28.5924 11.709 31.1658 11.719 33.7399C11.7197 34.0078 11.6732 34.108 11.3723 34.1057C9.37076 34.0913 7.36924 34.0981 5.36848 34.0981C4.91362 34.0981 4.48924 33.9805 4.11057 33.7338C3.34867 33.2383 2.95324 32.55 2.95857 31.6226C2.97152 29.0864 2.96619 26.551 2.96238 24.0148C2.96086 23.1216 2.32314 22.4599 1.48809 22.4644C0.678952 22.469 0.0313327 23.1315 0.029047 23.9936C0.0221899 26.5799 0.00466608 29.1669 0.0351423 31.7531C0.069428 34.6445 2.38867 36.95 5.2999 36.9856C7.89648 37.0175 10.493 36.9925 13.0904 36.9978C13.5308 36.9985 13.9125 36.8771 14.221 36.5569C14.5296 36.2366 14.6226 35.8488 14.6218 35.4132C14.6165 32.2844 14.6165 29.1555 14.6233 26.0266C14.6271 24.4679 15.6664 23.4396 17.2214 23.4373C18.4374 23.4358 19.6534 23.4343 20.8694 23.4381C21.5117 23.4404 22.0915 23.6263 22.5753 24.0611C23.1826 24.6068 23.3982 25.308 23.3982 26.0995C23.3967 29.2283 23.3967 32.3572 23.4028 35.4861C23.4043 36.3861 23.9681 36.9864 24.8496 36.9902C27.5475 37 30.2454 36.9963 32.9433 36.9826C33.7418 36.9788 34.4953 36.7466 35.1864 36.3542C37.0203 35.3138 37.9628 33.7065 37.9803 31.6287C38.0176 27.1376 37.994 22.6458 37.9932 18.154L37.9917 18.1517Z" fill="white"/>
</svg>
